<svg width="733" height="592" viewBox="0 0 733 592" fill="none" xmlns="http://www.w3.org/2000/svg">
<path fill-rule="evenodd" clip-rule="evenodd" d="M434.716 -299.397C535.676 -294.6 641.877 -257.08 703.521 -178.965C760.517 -106.739 722.22 -4.18237 738.501 85.5593C751.59 157.708 800.441 221.706 789.356 294.173C777.076 374.457 737.925 451.072 674.544 503.694C608.163 558.808 520.242 605.116 434.716 588.614C351.822 572.619 326 467.724 255.178 422.776C177.688 373.598 42.5905 400.55 7.17032 317.272C-27.5283 235.691 86.0282 164.028 108.764 78.5358C133.948 -16.1648 81.6052 -130.572 146.181 -205.446C213.083 -283.017 330.897 -304.329 434.716 -299.397Z" fill="#266EFF"/>
</svg>
